<?xml version="1.0" encoding="utf-8"?>
<!-- Generator: Adobe Illustrator 15.1.0, SVG Export Plug-In  -->
<!DOCTYPE svg PUBLIC "-//W3C//DTD SVG 1.1//EN" "http://www.w3.org/Graphics/SVG/1.1/DTD/svg11.dtd" [
	<!ENTITY ns_flows "http://ns.adobe.com/Flows/1.0/">
]>
<svg version="1.1"
	 xmlns="http://www.w3.org/2000/svg" xmlns:xlink="http://www.w3.org/1999/xlink" xmlns:a="http://ns.adobe.com/AdobeSVGViewerExtensions/3.0/"
	 x="0px" y="0px" viewBox="-1.61 -1.69 205 55"
	 overflow="visible" enable-background="new -1.61 -1.69 205 55" xml:space="preserve" preserveAspectRatio="xMidYMid meet">
<defs>
</defs>
<path display="none" fill="#D3D3D3" d="M32.59,32.62c-1.07,1.46-2.81,3.88-5.9,5.73c-3.15,1.85-6.97,2.58-10,2.58
	C7.14,40.93,0,34.53,0,25.71c0-4.21,1.74-7.53,3.76-9.61c2.53-2.53,6.97-4.5,12.02-4.5c3.03,0,8.37,0.73,12.42,4.78
	c3.76,3.76,4.16,7.81,4.38,10.34H3.88c0.45,7.36,6.69,11.01,13.15,11.01c0.96,0,1.91-0.06,2.75-0.22c4.38-0.79,6.69-2.98,7.75-4.1
	c1.12-1.18,1.57-1.97,2.08-2.87L32.59,32.62z M28.09,23.63c-0.45-1.85-1.29-4.55-4.66-6.74c-1.63-1.07-3.99-2.19-7.81-2.19
	c-2.75,0-6.24,0.56-9.1,3.76c-1.97,2.19-2.36,4.27-2.53,5.17H28.09z"/>
<path display="none" fill="#D3D3D3" d="M36.48,0.59h3.76v39.67h-3.76V0.59z"/>
<path display="none" fill="#D3D3D3" d="M76.86,32.62c-1.07,1.46-2.81,3.88-5.9,5.73c-3.15,1.85-6.97,2.58-10,2.58
	c-9.55,0-16.69-6.4-16.69-15.23c0-4.21,1.74-7.53,3.76-9.61c2.53-2.53,6.97-4.5,12.02-4.5c3.03,0,8.37,0.73,12.42,4.78
	c3.76,3.76,4.16,7.81,4.38,10.34H48.15c0.45,7.36,6.69,11.01,13.15,11.01c0.96,0,1.91-0.06,2.75-0.22c4.38-0.79,6.69-2.98,7.75-4.1
	c1.12-1.18,1.57-1.97,2.08-2.87L76.86,32.62z M72.37,23.63c-0.45-1.85-1.29-4.55-4.66-6.74c-1.63-1.07-3.99-2.19-7.81-2.19
	c-2.75,0-6.24,0.56-9.1,3.76c-1.97,2.19-2.36,4.27-2.53,5.17H72.37z"/>
<path display="none" fill="#D3D3D3" d="M84.95,42.28c0.17,1.4,0.45,3.26,3.26,4.61c1.85,0.84,4.89,1.29,7.36,1.29
	c0.56,0,7.14,0,10-2.42c2.47-2.13,2.47-5.45,2.42-9.89c-0.96,1.18-1.85,2.25-3.99,3.26c-2.81,1.35-5.96,1.91-8.99,1.91
	c-8.6,0-15.9-5-15.9-14.83c0-8.93,7.14-14.61,16.63-14.61c2.53,0,8.43,0.51,12.25,4.94V12.5h3.54v24.89c0,4.04-0.06,8.93-5.11,11.85
	c-3.48,2.02-8.82,2.25-10.56,2.25c-1.91,0-4.94-0.22-7.42-0.9c-2.7-0.73-6.74-2.42-7.36-8.32H84.95z M83.1,26.21
	c0,6.74,4.94,11.52,12.53,11.52c4.61,0,8.2-1.74,10-3.76c1.8-2.13,2.42-4.94,2.42-7.75c0-1.85-0.23-5-1.91-7.3
	c-1.8-2.47-6.01-4.33-10.73-4.16C88.49,14.98,83.1,19.19,83.1,26.21z"/>
<path display="none" fill="#D3D3D3" d="M150.84,40.2c-1.12,0.11-2.19,0.23-3.37,0.23c-3.15,0-4.16-1.29-4.61-4.27
	c-2.19,1.63-6.4,4.78-14.78,4.78c-5.11,0-7.25-1.12-8.09-1.57c-2.53-1.46-4.33-4.1-4.33-7.42c0-3.03,1.52-5.45,3.37-6.8
	c3.99-2.87,12.92-2.98,23.77-3.09c0-3.31-0.06-6.97-11.46-6.97c-8.82,0-10.34,2.36-11.46,5.67l-3.88-0.17
	c0.22-1.01,0.62-2.3,1.46-3.6c2.98-4.55,8.43-5.28,13.71-5.28c3.54,0,8.31,0.39,11.35,2.13c3.54,2.02,3.71,6.01,3.71,7.58v11.85
	c0,3.03,0.62,4.33,4.61,4.1V40.2z M122.02,27.79c-1.69,1.18-2.36,2.75-2.36,4.21c0,5.11,6.35,5.62,8.88,5.62
	c5.62,0,10.51-2.08,12.53-4.38c1.74-2.02,1.85-4.61,1.8-8.03C134.43,25.2,125.33,25.31,122.02,27.79z"/>
<path display="none" fill="#D3D3D3" d="M184.71,40.26H181V25.15c0-3.82-0.28-9.89-11.85-9.89c-3.82,0-7.98,0.9-10.56,3.6
	c-1.74,1.8-1.97,3.26-1.97,5.84v15.56h-3.76V12.5h3.76v3.88c1.46-1.46,4.66-4.66,12.98-4.66c3.76,0,7.42,0.84,9.78,2.19
	c5.17,2.87,5.28,7.58,5.34,11.01V40.26z"/>
<path display="none" fill="#D3D3D3" d="M194.76,1.27V12.5h7.87v2.92h-7.87v13.2c0,5.39,0,9.05,5.39,9.05c0.84,0,1.63-0.06,2.47-0.17
	v2.98c-1.29,0.22-2.36,0.39-3.71,0.39c-2.92,0-5.23-0.79-6.52-2.81s-1.35-4.83-1.35-8.76V15.43h-5.28V12.5h5.28V3.07L194.76,1.27z"
	/>
<path fill="#999999" d="M16.74,37.54c0.94,0,1.88-0.05,2.71-0.22c4.31-0.77,6.58-2.93,7.63-4.04c0.07-0.07,0.13-0.14,0.2-0.21
	c-1.26,1.14-3.4,2.64-6.84,3.26c-0.83,0.17-1.77,0.22-2.71,0.22c-6.06,0-11.93-3.27-12.84-9.86H3.8
	C4.24,33.95,10.38,37.54,16.74,37.54z"/>
<path fill="#999999" d="M7.36,17.62c-0.33,0.29-0.65,0.61-0.96,0.96c-1.94,2.16-2.32,4.2-2.49,5.09h23.73
	c-0.07-0.31-0.16-0.64-0.27-0.98H4.89C5.06,21.79,5.44,19.76,7.36,17.62z"/>
<path fill="#999999" d="M28.73,15.54c-3.98-3.98-9.24-4.7-12.22-4.7c-4.98,0-9.35,1.94-11.83,4.42c-0.15,0.15-0.29,0.31-0.43,0.47
	c2.55-2.23,6.65-3.91,11.28-3.91c2.99,0,8.24,0.72,12.22,4.7c3.25,3.25,3.95,6.71,4.22,9.19h1.08
	C32.82,23.23,32.44,19.25,28.73,15.54z"/>
<path fill="#999999" d="M29.97,35.11c1.42-1.32,2.39-2.65,3.07-3.58l-2.93-2.05c-0.23,0.4-0.44,0.78-0.71,1.18l2.65,1.85
	C31.55,33.21,30.88,34.13,29.97,35.11z"/>
<polygon fill="#999999" points="36.88,0.98 39.6,0.98 39.6,39.04 40.58,39.04 40.58,0 36.88,0 "/>
<path fill="#999999" d="M50.94,17.62c-0.33,0.29-0.65,0.61-0.96,0.96c-1.94,2.16-2.32,4.2-2.49,5.09h23.73
	c-0.07-0.31-0.16-0.64-0.27-0.98H48.48C48.64,21.79,49.03,19.76,50.94,17.62z"/>
<path fill="#999999" d="M72.99,30.65l2.65,1.85c-0.51,0.7-1.18,1.62-2.09,2.6c1.42-1.32,2.39-2.65,3.07-3.58l-2.93-2.05"/>
<path fill="#999999" d="M60.32,37.54c0.94,0,1.88-0.05,2.71-0.22c4.31-0.77,6.58-2.93,7.63-4.04c0.07-0.07,0.13-0.14,0.2-0.21
	c-1.26,1.14-3.4,2.64-6.84,3.26c-0.83,0.17-1.77,0.22-2.71,0.22c-6.06,0-11.93-3.27-12.84-9.86h-1.08
	C47.83,33.95,53.96,37.54,60.32,37.54z"/>
<path fill="#999999" d="M72.31,15.54c-3.98-3.98-9.24-4.7-12.22-4.7c-4.98,0-9.35,1.94-11.83,4.42c-0.15,0.15-0.29,0.31-0.43,0.47
	c2.55-2.23,6.65-3.91,11.28-3.91c2.99,0,8.24,0.72,12.22,4.7c3.25,3.25,3.95,6.71,4.22,9.19h1.08
	C76.41,23.23,76.02,19.25,72.31,15.54z"/>
<path fill="#999999" d="M86.81,46.55c1.83,0.83,4.81,1.27,7.24,1.27c0.55,0,7.02,0,9.84-2.38c0.3-0.26,0.56-0.54,0.8-0.83
	c-2.91,2.23-9.11,2.23-9.66,2.23c-2.43,0-5.42-0.44-7.24-1.27c-2.77-1.33-3.04-3.15-3.21-4.54h-3.82c0.04,0.34,0.08,0.67,0.14,0.98
	h2.69C83.77,43.4,84.05,45.23,86.81,46.55z"/>
<path fill="#999999" d="M106.28,16.69v-2c-3.73-3.43-8.79-3.85-11.07-3.85c-5.4,0-10.02,1.86-12.96,5.13
	c2.94-2.65,7.15-4.14,11.98-4.14C96.71,11.82,102.52,12.32,106.28,16.69z"/>
<path fill="#999999" d="M82.77,25.22c0-2.93,0.95-5.36,2.56-7.2c-2.2,1.93-3.55,4.71-3.55,8.19c0,6.64,4.87,11.34,12.33,11.34
	c4.54,0,8.07-1.71,9.84-3.71c0.05-0.05,0.09-0.11,0.13-0.16c-1.94,1.62-5.1,2.88-8.99,2.88C87.63,36.56,82.77,31.85,82.77,25.22z"/>
<path fill="#999999" d="M107.27,12.71h2.5v24.5c0,3.12-0.03,6.74-2.44,9.55c3.38-2.9,3.42-7.04,3.42-10.53v-24.5h-3.48V12.71z"/>
<path fill="#999999" d="M105.65,36.48c0.23-0.2,0.44-0.4,0.64-0.6c0-0.05,0-0.1,0-0.16C106.07,35.97,105.87,36.23,105.65,36.48z"/>
<path fill="#999999" d="M118.36,19.83l0.61,0.03c0.34-1,0.71-1.9,1.31-2.69C119.35,17.9,118.79,18.8,118.36,19.83z"/>
<path fill="#999999" d="M144.91,32.19V20.52c0-1.55-0.17-5.48-3.65-7.47c-2.99-1.71-7.69-2.1-11.17-2.1c-4.75,0-9.63,0.6-12.67,4.11
	c3.05-2.65,7.43-3.13,11.69-3.13c3.48,0,8.18,0.39,11.17,2.1c3.48,1.99,3.65,5.92,3.65,7.47v11.67c0,2.99,0.61,4.26,4.53,4.04v1.88
	c0.33-0.03,0.65-0.06,0.98-0.1v-2.76C145.52,36.44,144.91,35.17,144.91,32.19z"/>
<path fill="#999999" d="M140.55,22.11c0-0.32,0-0.65-0.01-0.97c-10.22,0.11-18.59,0.3-22.4,3.03c-0.49,0.36-0.96,0.79-1.38,1.29
	c0.13-0.11,0.26-0.21,0.4-0.31C121.09,22.33,129.88,22.22,140.55,22.11z"/>
<path fill="#999999" d="M118.75,30.92c0-0.98,0.31-2.01,1.03-2.93c-1.43,1.13-2.01,2.57-2.01,3.92c0,5.03,6.25,5.53,8.74,5.53
	c5.53,0,10.34-2.05,12.33-4.31c0.05-0.06,0.1-0.12,0.15-0.18c-2.32,1.93-6.63,3.51-11.5,3.51C125,36.44,118.75,35.95,118.75,30.92z"
	/>
<path fill="#999999" d="M177.54,13.11c-2.32-1.33-5.92-2.16-9.62-2.16c-8.18,0-11.34,3.15-12.77,4.59v-3.82h-3.71v0.98h2.72v3.82
	c1.44-1.44,4.59-4.59,12.77-4.59c3.71,0,7.3,0.83,9.62,2.16c5.09,2.82,5.2,7.47,5.25,10.84v14.11h0.98v-15.1
	C182.73,20.57,182.62,15.93,177.54,13.11z"/>
<path fill="#999999" d="M156.09,18.96c-1.71,1.77-1.94,3.21-1.94,5.75v14.33h0.98V23.73c0-2.35,0.19-3.76,1.57-5.35
	C156.49,18.56,156.29,18.75,156.09,18.96z"/>
<polygon fill="#999999" points="191.7,12.71 199.44,12.71 199.44,14.6 200.43,14.6 200.43,11.72 192.68,11.72 192.68,0.66 
	189.03,2.43 189.03,2.94 191.7,1.65 "/>
<path fill="#999999" d="M191.7,15.58v13c0,5.31,0,8.9,5.31,8.9c0.83,0,1.6-0.06,2.43-0.17v2.11c0.32-0.05,0.64-0.1,0.98-0.16v-2.93
	c-0.83,0.11-1.6,0.17-2.43,0.17c-5.31,0-5.31-3.6-5.31-8.9V15.58H191.7z"/>
<rect x="183.83" y="11.72" fill="#999999" width="4.21" height="0.98"/>
<path fill="#D3D3D3" d="M28.07,32.3c0.61-0.64,1.01-1.16,1.34-1.64l-0.28-0.19c-0.47,0.83-0.89,1.56-1.85,2.61
	C27.59,32.78,27.85,32.52,28.07,32.3z"/>
<path fill="#D3D3D3" d="M15.52,11.82c-4.63,0-8.73,1.67-11.28,3.91c-1.8,2.06-3.27,5.14-3.27,8.99c0,8.68,7.02,14.99,16.43,14.99
	c2.99,0,6.75-0.72,9.84-2.54c1.07-0.64,1.97-1.35,2.74-2.06c0.9-0.97,1.57-1.9,2.08-2.6l-2.65-1.85c-0.33,0.49-0.73,1.01-1.34,1.64
	c-0.21,0.22-0.47,0.49-0.79,0.78c-0.06,0.07-0.13,0.14-0.2,0.21c-1.05,1.11-3.32,3.26-7.63,4.04c-0.83,0.17-1.77,0.22-2.71,0.22
	c-6.36,0-12.5-3.59-12.94-10.84h1.08c-0.04-0.32-0.08-0.65-0.1-0.98h27.18c-0.27-2.48-0.97-5.94-4.22-9.19
	C23.76,12.54,18.51,11.82,15.52,11.82z M27.63,23.66H3.91c0.17-0.89,0.55-2.93,2.49-5.09c0.31-0.35,0.63-0.67,0.96-0.96
	c0.01-0.01,0.02-0.02,0.03-0.03c2.82-3.15,6.25-3.71,8.96-3.71c3.76,0,6.08,1.11,7.69,2.16c3.32,2.16,4.15,4.81,4.59,6.64h-1.25
	C27.48,23.02,27.56,23.35,27.63,23.66z"/>
<rect x="36.88" y="0.98" fill="#D3D3D3" width="2.72" height="38.06"/>
<path fill="#D3D3D3" d="M71.65,32.3c0.61-0.64,1.01-1.16,1.34-1.64l-0.28-0.19c-0.47,0.83-0.89,1.56-1.85,2.61
	C71.18,32.78,71.44,32.52,71.65,32.3z"/>
<path fill="#D3D3D3" d="M59.11,11.82c-4.63,0-8.73,1.67-11.28,3.91c-1.8,2.06-3.27,5.14-3.27,8.99c0,8.68,7.02,14.99,16.42,14.99
	c2.99,0,6.75-0.72,9.84-2.54c1.07-0.64,1.97-1.35,2.74-2.06c0.9-0.97,1.57-1.9,2.09-2.6l-2.65-1.85c-0.33,0.49-0.73,1.01-1.34,1.64
	c-0.21,0.22-0.47,0.49-0.79,0.77c-0.06,0.07-0.13,0.14-0.2,0.21c-1.05,1.11-3.32,3.26-7.63,4.04c-0.83,0.17-1.77,0.22-2.71,0.22
	c-6.36,0-12.5-3.59-12.94-10.84h1.08c-0.04-0.32-0.08-0.65-0.1-0.98h27.18c-0.27-2.48-0.97-5.94-4.22-9.19
	C67.35,12.54,62.09,11.82,59.11,11.82z M71.22,23.66H47.49c0.17-0.89,0.55-2.93,2.49-5.09c0.31-0.35,0.63-0.67,0.96-0.96
	c0.01-0.01,0.02-0.02,0.03-0.03c2.82-3.15,6.25-3.71,8.96-3.71c3.76,0,6.08,1.11,7.69,2.16c3.32,2.16,4.15,4.81,4.59,6.64h-1.25
	C71.06,23.02,71.14,23.35,71.22,23.66z"/>
<path fill="#D3D3D3" d="M109.77,12.71h-2.5v3c-0.31-0.37-0.64-0.7-0.98-1.02v2c-3.76-4.37-9.57-4.87-12.06-4.87
	c-4.83,0-9.04,1.49-11.98,4.14c-2.15,2.39-3.41,5.53-3.41,9.25c0,9.68,7.19,14.6,15.65,14.6c2.99,0,6.08-0.55,8.85-1.88
	c1-0.47,1.72-0.96,2.31-1.46c0.22-0.25,0.43-0.5,0.63-0.76c0,0.05,0,0.1,0,0.16c0.35-0.37,0.67-0.75,0.98-1.14
	c0.06,4.37,0.06,7.63-2.38,9.73c-0.06,0.05-0.12,0.1-0.19,0.15c-0.23,0.3-0.49,0.57-0.8,0.83c-2.82,2.38-9.29,2.38-9.84,2.38
	c-2.43,0-5.42-0.44-7.24-1.27c-2.77-1.33-3.04-3.15-3.21-4.54h-2.69c0.93,5.01,4.6,6.52,7.1,7.2c2.43,0.66,5.42,0.88,7.3,0.88
	c1.71,0,6.97-0.22,10.4-2.21c0.61-0.35,1.14-0.73,1.61-1.14c2.4-2.81,2.44-6.43,2.44-9.55V12.71z M104.94,32.85
	c-0.25,0.28-0.53,0.56-0.85,0.82c-0.04,0.05-0.09,0.11-0.13,0.16c-1.77,1.99-5.31,3.71-9.84,3.71c-7.47,0-12.33-4.7-12.33-11.34
	c0-3.48,1.35-6.26,3.55-8.19c2.2-2.52,5.62-3.95,9.55-4.08c4.65-0.17,8.79,1.66,10.56,4.09c1.66,2.27,1.88,5.37,1.88,7.19
	C107.32,27.98,106.71,30.75,104.94,32.85z"/>
<path fill="#D3D3D3" d="M143.93,33.17V21.5c0-1.55-0.17-5.48-3.65-7.47c-2.99-1.71-7.69-2.1-11.17-2.1c-4.26,0-8.64,0.48-11.69,3.13
	c-0.29,0.33-0.56,0.7-0.82,1.08c-0.83,1.27-1.22,2.54-1.44,3.54l3.21,0.14c0.43-1.03,0.98-1.93,1.92-2.66
	c1.37-1.78,3.94-2.9,9.97-2.9c11.23,0,11.28,3.59,11.28,6.86c-0.33,0-0.67,0.01-1,0.01c0.01,0.33,0.01,0.65,0.01,0.97
	c-10.67,0.11-19.47,0.22-23.39,3.04c-0.13,0.1-0.27,0.2-0.4,0.31c-1.14,1.36-1.94,3.22-1.94,5.4c0,3.26,1.77,5.86,4.26,7.3
	c0.83,0.44,2.93,1.55,7.96,1.55c8.24,0,12.39-3.1,14.54-4.7c0.44,2.93,1.44,4.2,4.53,4.2c0.81,0,1.57-0.05,2.33-0.12v-1.88
	C144.53,37.43,143.93,36.16,143.93,33.17z M139.82,32.13c-0.24,0.27-0.52,0.54-0.83,0.8c-0.05,0.06-0.1,0.12-0.15,0.18
	c-1.99,2.27-6.8,4.31-12.33,4.31c-2.49,0-8.74-0.5-8.74-5.53c0-1.34,0.58-2.79,2.01-3.92c0.34-0.43,0.77-0.85,1.3-1.22
	c3.26-2.43,12.22-2.54,20.52-2.54C141.65,27.6,141.54,30.14,139.82,32.13z"/>
<path fill="#D3D3D3" d="M176.55,14.09c-2.32-1.33-5.92-2.16-9.62-2.16c-8.18,0-11.34,3.15-12.77,4.59v-3.82h-2.72v26.33h2.72V24.71
	c0-2.54,0.22-3.98,1.94-5.75c0.2-0.21,0.4-0.4,0.62-0.59c0.11-0.13,0.24-0.26,0.37-0.4c2.54-2.65,6.64-3.54,10.4-3.54
	c11.39,0,11.67,5.97,11.67,9.73v14.88h2.67V24.93C181.75,21.56,181.64,16.91,176.55,14.09z"/>
<path fill="#D3D3D3" d="M197.01,37.49c-5.31,0-5.31-3.6-5.31-8.9v-13h0.98V14.6h6.76v-1.89h-7.74V1.65l-2.67,1.29v8.78h-0.98v0.98
	h-4.21v1.89h5.2v13.66c0,3.87,0.06,6.64,1.33,8.63c1.27,1.99,3.54,2.77,6.42,2.77c0.97,0,1.79-0.09,2.67-0.22v-2.11
	C198.61,37.43,197.84,37.49,197.01,37.49z"/>
</svg>
